<?xml version="1.0" encoding="utf-8"?>
<!-- Generator: Adobe Illustrator 26.5.0, SVG Export Plug-In . SVG Version: 6.00 Build 0)  -->
<svg version="1.1" id="Layer_1" xmlns="http://www.w3.org/2000/svg" xmlns:xlink="http://www.w3.org/1999/xlink" x="0px" y="0px"
	 viewBox="0 0 529 512" style="enable-background:new 0 0 529 512;" xml:space="preserve">
<style type="text/css">
	.st0{fill:#ED0677;}
</style>
<path class="st0" d="M456.8,108.3c-42.1-33.8-89.8-62.5-140-82.5C265.9,5.4,204-6.6,150,8.6C91.7,24.9,35.5,66.8,8.4,121.5
	c-3.9,7.9-7.3,16.3-7,25.1c0.2,8.8,4.8,17.9,13,21.2c6.7,2.7,14.6,0.9,20.8-2.8c6.3-3.7,11.3-9,16.5-14.1c17.4-16.8,38.2-31,61.7-37
	c30.3-7.7,77.2-2.5,70.3,38.7c-8.2,50.4-55.6,88.6-68.2,138.5c-10,40.1-6.2,83.7,11.6,121.1c37.4,78.5,176.2,156.2,215.5,36.1
	c8.3-25.5,11.1-52.9,22.7-77.3c11-23.3,30.7-43.3,54.2-54.2c24.8-11.6,52.5-14.9,74.9-31.9c25.4-19.3,37.4-53.8,31.9-85
	C519.3,160,486.8,132.3,456.8,108.3L456.8,108.3z M318.5,286.5c-8.4,22-16.9,44-24.7,66.1c-0.5,1.5-1.1,3-1.5,4.5
	c-6.1,17.4-9.4,38.9-28.3,47.3c-29.7,13.2-59-19.7-68.4-44.4c-14.7-38.1-8.8-92,26.1-117.6C255.4,217.7,340.8,228.3,318.5,286.5z"/>
</svg>
