<?xml version="1.0" encoding="utf-8"?>
<!-- Generator: Adobe Illustrator 27.0.0, SVG Export Plug-In . SVG Version: 6.00 Build 0)  -->
<svg version="1.1" id="Layer_1" xmlns="http://www.w3.org/2000/svg" xmlns:xlink="http://www.w3.org/1999/xlink" x="0px" y="0px"
	 viewBox="0 0 400 208" style="enable-background:new 0 0 400 208;" xml:space="preserve">
<style type="text/css">
	.st0{fill:#FAA61A;}
</style>
<path class="st0" d="M421.3,20.9c-66-34.8-144.9-28-188.3,37.3c-18.7,28-28.6,60.5-36.6,92.9c-6.8,27.5-18.8,61.1-53.7,59
	c-18.6-1.1-35.1-12-49.1-24.3s-26.5-26.3-42.3-36.2C38,141.4,19,137,7.8,147.9c-9.9,9.6-8.5,25.8-5.2,39.2
	c13.1,52.8,42.9,99.1,73.9,143c32.4,45.9,63.3,92.7,98.8,136.4c26.8,32.8,54.3,65.9,87.1,92.9C311,599.3,376.6,593,355.7,518
	c-17.7-63.7-83.6-301.1,28.4-317c37.8-5.4,77,25.2,101.1,50.7c30.2,31.9,55.3,70.4,93.6,91.9c9,5.1,19.1,9.2,29.5,9
	s21.2-5.4,25.6-14.8c4.2-9.1,1.9-19.7-0.9-29.3c-20.3-69.5-64.3-130.4-106.5-188.2c-26.8-36.8-58-71.6-97.1-94.8
	C426.8,23.9,424.1,22.4,421.3,20.9z"/>
</svg>
