<svg width="130" height="46" viewBox="0 0 130 46" fill="none" xmlns="http://www.w3.org/2000/svg">
<g clip-path="url(#clip0_1874_1863)">
<path d="M107.556 19.7567C107.258 17.1019 106.584 14.4311 105.522 11.9778C104.445 9.48469 102.69 6.90144 100.264 5.54881C97.6441 4.08744 94.2093 3.59678 91.3505 4.57014C90.9391 4.71071 90.525 4.88841 90.2277 5.20402C89.9304 5.51963 89.7712 6.00234 89.9437 6.40017C90.087 6.72904 90.4241 6.93857 90.7719 7.02874C91.1196 7.11892 91.4833 7.10566 91.8443 7.11096C93.044 7.12953 94.2677 7.35497 95.3029 7.96498C96.6354 8.75003 98.1006 10.5721 96.4204 11.7762C94.3712 13.2588 91.3744 12.9432 89.1899 14.2587C87.4353 15.3169 86.0471 16.9799 85.3675 18.9107C83.9395 22.9685 86.1001 30.538 91.6744 27.6974C92.8582 27.0927 93.912 26.2281 95.1702 25.7746C96.37 25.3423 97.7635 25.3264 98.9686 25.764C100.245 26.2202 101.334 27.0742 102.714 27.2572C104.28 27.4641 105.907 26.6737 106.802 25.39C107.943 23.7483 107.768 21.6424 107.553 19.7594L107.556 19.7567ZM96.4762 21.1836C95.4144 21.661 94.3473 22.1384 93.2989 22.6423C93.2272 22.6768 93.1555 22.7086 93.0892 22.7458C92.269 23.1436 91.3983 23.7828 90.4454 23.4168C88.943 22.8439 89.0651 20.6664 89.5933 19.4703C90.4082 17.619 92.4972 15.9349 94.6154 16.2558C96.6646 16.5661 99.2925 19.9185 96.4762 21.1836Z" fill="white"/>
<path d="M56.4403 19.7567C56.1431 17.1019 55.4688 14.4311 54.4071 11.9778C53.3294 9.48469 51.5748 6.90144 49.1487 5.54881C46.5289 4.08744 43.0941 3.59678 40.2353 4.57014C39.8239 4.71071 39.4098 4.88841 39.1125 5.20402C38.8152 5.51963 38.6559 6.00234 38.8285 6.40017C38.9718 6.72904 39.3089 6.93857 39.6566 7.02874C40.0044 7.11892 40.368 7.10566 40.729 7.11096C41.9288 7.12953 43.1525 7.35497 44.1877 7.96498C45.5202 8.75003 46.9854 10.5721 45.3052 11.7762C43.256 13.2588 40.2592 12.9432 38.0746 14.2587C36.3201 15.3169 34.9318 16.9799 34.2523 18.9107C32.8242 22.9685 34.9849 30.538 40.5591 27.6974C41.743 27.0927 42.7968 26.2281 44.055 25.7746C45.2547 25.3423 46.6483 25.3264 47.8534 25.764C49.1302 26.2202 50.2185 27.0742 51.5987 27.2572C53.1648 27.4641 54.792 26.6737 55.6865 25.39C56.8279 23.7483 56.6527 21.6424 56.4377 19.7594L56.4403 19.7567ZM45.3609 21.1836C44.2992 21.661 43.2321 22.1384 42.1836 22.6423C42.1119 22.6768 42.0403 22.7086 41.9739 22.7458C41.1537 23.1436 40.2831 23.7828 39.3301 23.4168C37.8278 22.8439 37.9499 20.6664 38.4781 19.4703C39.293 17.619 41.382 15.9349 43.5002 16.2558C45.5494 16.5661 48.1772 19.9185 45.3609 21.1836Z" fill="white"/>
<path d="M27.0511 26.9095C26.3476 25.9229 26.0397 24.5279 25.8513 23.467C25.3814 20.828 24.9143 18.1891 24.4444 15.5475C24.333 14.9215 24.2135 14.277 23.8631 13.7493C22.443 11.6116 20.8477 14.4468 20.4602 15.7888C20.1443 16.8815 19.9957 18.0458 19.4276 19.0325C18.8596 20.0191 17.6943 20.7988 16.6087 20.4541C15.9 20.2286 15.4089 19.5947 14.9683 18.998C13.8428 17.4756 12.8182 14.7571 10.3815 15.5501C8.1518 16.2742 7.35813 19.4329 6.92281 21.4327C6.44768 23.6128 6.29372 25.8646 5.6434 27.9996C5.37796 28.8748 5.01696 29.7448 4.40114 30.4237C3.78532 31.1027 2.88018 31.5668 1.96972 31.466C0.146155 31.2592 -0.0661959 29.2196 0.0134359 27.7768C0.358507 21.6263 1.29816 15.4546 2.8616 9.49245C3.57563 6.76863 5.46821 2.63383 8.89237 2.94679C10.4983 3.09266 11.7857 4.31268 12.8209 5.54861C13.7658 6.67845 14.7851 8.24856 16.2105 8.82675C17.6572 9.41023 18.6579 8.2353 19.2949 7.05241C20.5213 4.77681 21.368 1.33424 24.0065 0.313138C25.4584 -0.249131 27.1811 -0.0475626 28.4632 0.832973C31.5476 2.94679 31.168 8.10534 31.3167 11.3649C31.5051 15.5236 31.6909 19.6796 31.8794 23.8383C31.9298 24.9389 31.9537 26.1298 31.3246 27.0342C30.7858 27.8086 29.7877 28.233 28.856 28.0898C28.0624 27.9651 27.4837 27.5169 27.0511 26.9095Z" fill="white"/>
<path d="M81.9859 8.19317C80.4304 4.8169 77.0965 2.69778 73.3963 3.96289C71.8063 4.50659 70.4287 5.49056 69.128 6.52758C68.0264 7.40811 66.5294 8.37352 65.2128 7.23572C64.512 6.62836 64.1882 5.69744 64.005 4.78773C63.8219 3.87802 63.7529 2.94179 63.4264 2.07451C63.1503 1.34515 62.5319 0.599881 61.7568 0.690057C61.0719 0.769623 60.6393 1.45389 60.3632 2.08512C59.2802 4.56759 59.0546 7.30468 58.9511 9.98076C58.8422 12.7788 58.6458 15.5637 58.7281 18.3697C58.7918 20.4782 58.8794 22.6212 59.3625 24.682C60.0739 27.7294 62.861 29.4666 64.3129 25.8649C65.5446 22.8069 70.1367 11.4262 75.0526 14.1898C76.7143 15.1234 77.3354 17.5184 77.5185 19.2556C77.7468 21.433 77.5716 23.7139 78.4396 25.727C78.644 26.2017 78.9174 26.6685 79.3341 26.9761C79.7509 27.2838 80.3375 27.4032 80.7967 27.1671C81.24 26.9364 81.4709 26.4457 81.6514 25.9816C82.9547 22.6186 83.0609 18.8789 83.1432 15.3144C83.1963 13.0467 83.0184 10.7287 82.1717 8.62283C82.1133 8.47961 82.0522 8.33639 81.9859 8.19317Z" fill="white"/>
<path d="M128.366 9.85066C127.142 6.48765 124.252 3.58878 120.886 2.36081C117.225 1.02674 113.69 2.27328 111.463 5.44268C111.158 5.87764 110.887 6.33647 110.651 6.81122C109.491 9.16373 109.185 11.861 109.353 14.4761C109.533 17.2556 110.011 20.3906 111.11 22.9552C112.161 25.4032 114.112 27.655 116.827 28.1934C117.363 28.2995 117.91 28.3445 118.454 28.3366C121.319 28.2968 124.031 26.6922 125.786 24.4909C128.82 20.677 130.043 14.4602 128.363 9.85066H128.366ZM121.836 15.9508C121.451 17.1973 120.209 19.6241 118.648 19.8071C116.273 20.0935 116.19 16.9374 115.827 15.4495C115.41 13.7521 115.02 11.2006 116.684 9.98857C117.233 9.58809 117.966 9.39713 118.683 9.46344C121.21 9.70744 122.157 12.0573 122.11 14.2029C122.091 14.8236 121.995 15.423 121.833 15.9508H121.836Z" fill="white"/>
<path d="M97.0443 19.1758C96.9859 19.1838 96.9195 19.1971 96.893 19.2501C96.8664 19.3031 96.9381 19.3801 96.9779 19.335" fill="white"/>
<path d="M0.917969 45.7349V35.8978H7.22215V37.5342H2.76012V40.0857H7.17171V41.738H2.76012V45.7349H0.917969Z" fill="white"/>
<path d="M14.4182 42.1067V35.8978H16.2603V41.7831C16.2603 42.531 16.4169 43.1225 16.7275 43.5601C17.0407 43.9977 17.5955 44.2152 18.3945 44.2152C19.1934 44.2152 19.7615 43.9977 20.0694 43.5601C20.3773 43.1225 20.5312 42.531 20.5312 41.7831V35.8978H22.3734V42.1067C22.3734 42.8334 22.2168 43.4938 21.9062 44.0826C21.593 44.6714 21.1444 45.1381 20.5525 45.4829C19.9632 45.8277 19.2439 46.0001 18.3945 46.0001C17.5451 46.0001 16.8257 45.8277 16.2364 45.4829C15.6472 45.1381 15.1959 44.6714 14.8827 44.0826C14.5695 43.4938 14.4155 42.8334 14.4155 42.1067H14.4182Z" fill="white"/>
<path d="M30.1108 45.7349V35.8978H31.9689L36.6937 42.8891V35.8978H38.4934V45.7349H36.6805L31.9132 38.6561V45.7349H30.1135H30.1108Z" fill="white"/>
<path d="M46.3022 45.7349V35.8978H49.9441C50.958 35.8978 51.8526 36.0729 52.6277 36.4203C53.4027 36.7704 54.0133 37.3088 54.4565 38.0435C54.8998 38.7755 55.1228 39.717 55.1228 40.8681C55.1228 41.9502 54.8972 42.8519 54.4512 43.5733C54.0026 44.2947 53.3895 44.8358 52.6091 45.1965C51.8287 45.5545 50.9368 45.7349 49.9335 45.7349H46.3076H46.3022ZM48.1444 44.0826H49.7689C50.8705 44.0826 51.7172 43.8094 52.3065 43.263C52.8958 42.7167 53.1904 41.929 53.1904 40.8972C53.1904 39.8655 52.9196 39.0487 52.3781 38.4493C51.8366 37.8499 50.966 37.5502 49.7689 37.5502H48.1444V44.0826Z" fill="white"/>
<path d="M61.3662 45.7349L65.0664 35.8978H66.967L70.6672 45.7349H68.6207L67.7713 43.2418H64.1454L63.296 45.7349H61.3662ZM64.6577 41.7088H67.2457L65.9583 37.8896L64.6577 41.7088Z" fill="white"/>
<path d="M84.5922 42.8146L85.8796 43.9365C85.6858 44.2309 85.3912 44.5359 85.001 44.8515C84.6108 45.1671 84.1463 45.4323 83.6128 45.6472C83.0766 45.8647 82.4953 45.9707 81.8715 45.9707C80.9053 45.9707 80.0506 45.7506 79.3047 45.3077C78.5588 44.8648 77.9748 44.2574 77.5501 43.4856C77.1254 42.7138 76.9131 41.8412 76.9131 40.8679C76.9131 40.1491 77.0352 39.4755 77.2794 38.8469C77.5236 38.2183 77.866 37.664 78.3093 37.1866C78.7526 36.7092 79.2808 36.3352 79.8966 36.0647C80.5098 35.7942 81.1893 35.6589 81.9299 35.6589C82.8961 35.6589 83.6977 35.8499 84.3348 36.2345C84.9745 36.619 85.4868 37.0858 85.877 37.6348L84.5763 38.7992C84.2631 38.3483 83.9021 37.9823 83.4854 37.7091C83.0713 37.4333 82.551 37.2954 81.9272 37.2954C81.3034 37.2954 80.7434 37.4571 80.2815 37.7807C79.817 38.1043 79.464 38.5366 79.2144 39.0697C78.9649 39.6054 78.8428 40.1889 78.8428 40.8175C78.8428 41.4461 78.9676 42.0163 79.2144 42.5282C79.464 43.04 79.8117 43.4485 80.2603 43.7535C80.7089 44.0585 81.2344 44.2097 81.8396 44.2097C82.405 44.2097 82.8616 44.1275 83.2066 43.9577C83.5517 43.7906 83.8304 43.597 84.0401 43.3742C84.2498 43.1541 84.433 42.9631 84.5896 42.8067L84.5922 42.8146Z" fill="white"/>
<path d="M93.0015 45.7349V35.8978H94.8436V45.7349H93.0015Z" fill="white"/>
<path d="M107.351 46.0001C106.64 46.0001 105.976 45.8648 105.363 45.5943C104.75 45.3238 104.211 44.9498 103.746 44.4724C103.282 43.995 102.924 43.446 102.663 42.8201C102.406 42.1968 102.276 41.5258 102.276 40.8071C102.276 40.0883 102.406 39.4173 102.663 38.794C102.921 38.1708 103.282 37.6191 103.746 37.1417C104.208 36.6643 104.747 36.293 105.363 36.0278C105.976 35.7625 106.64 35.6299 107.351 35.6299C108.062 35.6299 108.726 35.7625 109.339 36.0278C109.952 36.293 110.491 36.6643 110.956 37.1417C111.42 37.6191 111.779 38.1681 112.039 38.794C112.296 39.4173 112.426 40.0883 112.426 40.8071C112.426 41.5258 112.296 42.1968 112.039 42.8201C111.781 43.4434 111.42 43.995 110.956 44.4724C110.491 44.9498 109.955 45.3238 109.339 45.5943C108.726 45.8648 108.062 46.0001 107.351 46.0001ZM107.351 44.2443C107.993 44.2443 108.551 44.0825 109.018 43.759C109.485 43.4354 109.849 43.0084 110.106 42.4833C110.364 41.9581 110.494 41.3852 110.494 40.7646C110.494 40.144 110.366 39.5605 110.114 39.038C109.859 38.5182 109.498 38.0991 109.023 37.7835C108.551 37.4679 107.993 37.3114 107.348 37.3114C106.703 37.3114 106.146 37.4679 105.673 37.7835C105.201 38.0991 104.837 38.5155 104.583 39.038C104.328 39.5605 104.203 40.1334 104.203 40.7646C104.203 41.3958 104.33 41.9581 104.583 42.4833C104.835 43.0084 105.198 43.4354 105.673 43.759C106.146 44.0825 106.703 44.2443 107.348 44.2443H107.351ZM106.414 35.1605L107.481 32.861H108.986L107.948 35.1605H106.411H106.414Z" fill="white"/>
<path d="M119.856 45.7349V35.8978H121.714L126.439 42.8891V35.8978H128.239V45.7349H126.426L121.658 38.6561V45.7349H119.859H119.856Z" fill="white"/>
</g>
<defs>
<clipPath id="clip0_1874_1863">
<rect width="129.123" height="46" fill="white"/>
</clipPath>
</defs>
</svg>
