<svg width="135" height="48" viewBox="0 0 135 48" fill="none" xmlns="http://www.w3.org/2000/svg">
<g clip-path="url(#clip0_1057_197)">
<path d="M112.232 20.6155C111.922 17.8452 111.218 15.0583 110.111 12.4983C108.986 9.89685 107.155 7.20128 104.624 5.78984C101.89 4.26493 98.3057 3.75294 95.3226 4.76862C94.8933 4.9153 94.4612 5.10072 94.151 5.43006C93.8408 5.7594 93.6746 6.26309 93.8546 6.67821C94.0042 7.02139 94.356 7.24002 94.7188 7.33412C95.0816 7.42821 95.4611 7.41438 95.8378 7.41991C97.0897 7.43928 98.3666 7.67452 99.4468 8.31106C100.837 9.13024 102.366 11.0315 100.613 12.288C98.4746 13.835 95.3475 13.5057 93.068 14.8784C91.2372 15.9826 89.7886 17.7179 89.0795 19.7326C87.5893 23.967 89.8439 31.8655 95.6605 28.9015C96.8959 28.2705 97.9955 27.3682 99.3084 26.895C100.56 26.4439 102.014 26.4273 103.272 26.8839C104.604 27.3599 105.74 28.2511 107.18 28.442C108.814 28.6579 110.512 27.8332 111.446 26.4937C112.637 24.7806 112.454 22.5832 112.229 20.6182L112.232 20.6155ZM100.671 22.1044C99.5632 22.6026 98.4497 23.1007 97.3556 23.6266C97.2809 23.6625 97.2061 23.6957 97.1368 23.7345C96.281 24.1496 95.3725 24.8166 94.3781 24.4347C92.8104 23.8369 92.9378 21.5647 93.489 20.3166C94.3393 18.3849 96.5192 16.6275 98.7295 16.9623C100.868 17.2861 103.61 20.7843 100.671 22.1044Z" fill="#ED0677"/>
<path d="M58.8943 20.6155C58.5841 17.8452 57.8806 15.0583 56.7727 12.4983C55.6481 9.89685 53.8173 7.20128 51.2857 5.78984C48.5519 4.26493 44.9678 3.75294 41.9847 4.76862C41.5554 4.9153 41.1233 5.10072 40.8131 5.43006C40.5029 5.7594 40.3367 6.26309 40.5167 6.67821C40.6663 7.02139 41.0181 7.24002 41.3809 7.33412C41.7437 7.42821 42.1232 7.41438 42.4999 7.41991C43.7519 7.43928 45.0287 7.67452 46.1089 8.31106C47.4994 9.13024 49.0283 11.0315 47.275 12.288C45.1367 13.835 42.0096 13.5057 39.7301 14.8784C37.8993 15.9826 36.4507 17.7179 35.7416 19.7326C34.2514 23.967 36.5061 31.8655 42.3226 28.9015C43.558 28.2705 44.6576 27.3682 45.9705 26.895C47.2224 26.4439 48.6766 26.4273 49.934 26.8839C51.2663 27.3599 52.4019 28.2511 53.8422 28.442C55.4764 28.6579 57.1743 27.8332 58.1077 26.4937C59.2987 24.7806 59.1159 22.5832 58.8916 20.6182L58.8943 20.6155ZM47.3332 22.1044C46.2253 22.6026 45.1118 23.1007 44.0177 23.6266C43.943 23.6625 43.8682 23.6957 43.7989 23.7345C42.9431 24.1496 42.0346 24.8166 41.0402 24.4347C39.4725 23.8369 39.5999 21.5647 40.1511 20.3166C41.0014 18.3849 43.1813 16.6275 45.3916 16.9623C47.5299 17.2861 50.272 20.7843 47.3332 22.1044Z" fill="#50B848"/>
<path d="M28.2272 28.0795C27.4932 27.05 27.1719 25.5943 26.9753 24.4873C26.485 21.7336 25.9975 18.9799 25.5073 16.2234C25.3909 15.5703 25.2663 14.8978 24.9007 14.3471C23.4188 12.1164 21.7542 15.0749 21.3498 16.4753C21.0202 17.6155 20.8651 18.8305 20.2723 19.86C19.6796 20.8895 18.4637 21.7031 17.3308 21.3434C16.5913 21.1081 16.0789 20.4467 15.6191 19.824C14.4447 18.2354 13.3755 15.3987 10.8329 16.2262C8.50624 16.9817 7.67807 20.2779 7.22383 22.3646C6.72803 24.6395 6.56738 26.9891 5.88878 29.217C5.6118 30.1303 5.23511 31.038 4.59252 31.7465C3.94992 32.455 3.00542 32.9393 2.05538 32.8341C0.152531 32.6183 -0.0690527 30.49 0.0140413 28.9845C0.374115 22.5666 1.35462 16.1266 2.98603 9.90518C3.73111 7.06293 5.70598 2.74835 9.27902 3.07492C10.9547 3.22713 12.2981 4.5002 13.3783 5.78986C14.3644 6.96883 15.428 8.60721 16.9153 9.21053C18.4249 9.81938 19.4691 8.59337 20.1339 7.35905C21.4135 4.98451 22.2971 1.39226 25.0502 0.326764C26.5653 -0.259952 28.3629 -0.0496199 29.7007 0.869199C32.9192 3.07492 32.5232 8.45776 32.6783 11.8591C32.8749 16.1985 33.0688 20.5352 33.2655 24.8747C33.3181 26.0233 33.343 27.2659 32.6866 28.2096C32.1243 29.0177 31.0829 29.4605 30.1107 29.3111C29.2825 29.181 28.6787 28.7133 28.2272 28.0795Z" fill="#3777BC"/>
<path d="M85.5507 8.54901C83.9276 5.02595 80.4487 2.81469 76.5876 4.13481C74.9285 4.70215 73.491 5.7289 72.1338 6.811C70.9843 7.72982 69.4221 8.7372 68.0483 7.54993C67.3171 6.91617 66.9792 5.94477 66.7881 4.99551C66.5969 4.04624 66.5249 3.06931 66.1842 2.16433C65.8962 1.40326 65.2508 0.625581 64.442 0.719677C63.7274 0.802703 63.276 1.51672 62.9879 2.1754C61.8578 4.7658 61.6224 7.62189 61.5144 10.4143C61.4008 13.3341 61.1958 16.24 61.2817 19.168C61.3482 21.3682 61.4396 23.6044 61.9437 25.7547C62.686 28.9346 65.5943 30.7473 67.1094 26.989C68.3945 23.7981 73.1863 11.9226 78.316 14.8064C80.0499 15.7806 80.698 18.2796 80.8891 20.0924C81.1273 22.3645 80.9445 24.7446 81.8502 26.8451C82.0635 27.3405 82.3488 27.8276 82.7836 28.1486C83.2185 28.4697 83.8306 28.5942 84.3098 28.3479C84.7724 28.1071 85.0133 27.5951 85.2017 27.1108C86.5616 23.6016 86.6724 19.6994 86.7583 15.9798C86.8137 13.6136 86.6281 11.1948 85.7446 8.99735C85.6836 8.8479 85.6199 8.69846 85.5507 8.54901Z" fill="#FAA61A"/>
<path d="M133.947 10.2786C132.67 6.76937 129.654 3.74446 126.142 2.4631C122.323 1.07103 118.633 2.37177 116.309 5.67897C115.991 6.13284 115.708 6.61162 115.462 7.10701C114.251 9.56181 113.933 12.3764 114.107 15.1052C114.296 18.0055 114.794 21.2768 115.941 23.953C117.038 26.5074 119.074 28.857 121.907 29.4188C122.467 29.5295 123.037 29.5766 123.605 29.5683C126.594 29.5268 129.424 27.8524 131.255 25.5554C134.421 21.5756 135.698 15.0886 133.945 10.2786H133.947ZM127.134 16.6439C126.732 17.9447 125.436 20.4769 123.807 20.6679C121.328 20.9668 121.242 17.6734 120.863 16.1208C120.428 14.3496 120.021 11.6873 121.757 10.4225C122.331 10.0046 123.095 9.80535 123.843 9.87454C126.48 10.1292 127.469 12.5812 127.419 14.8201C127.4 15.4677 127.3 16.0932 127.131 16.6439H127.134Z" fill="#524FA1"/>
<path d="M101.264 20.0093C101.203 20.0176 101.134 20.0314 101.106 20.0868C101.078 20.1421 101.153 20.2224 101.195 20.1753" fill="#ED0677"/>
<path d="M0.958496 47.723V37.4583H7.53677V39.1658H2.88074V41.8282H7.48414V43.5523H2.88074V47.723H0.958496Z" fill="#08152E"/>
<path d="M15.0457 43.937V37.4583H16.968V43.5994C16.968 44.3798 17.1314 44.997 17.4555 45.4536C17.7823 45.9103 18.3612 46.1372 19.1949 46.1372C20.0286 46.1372 20.6213 45.9103 20.9426 45.4536C21.2639 44.997 21.4246 44.3798 21.4246 43.5994V37.4583H23.3468V43.937C23.3468 44.6953 23.1834 45.3845 22.8593 45.9988C22.5325 46.6132 22.0644 47.1003 21.4467 47.4601C20.8318 47.8199 20.0812 47.9998 19.1949 47.9998C18.3086 47.9998 17.5579 47.8199 16.943 47.4601C16.3282 47.1003 15.8573 46.6132 15.5305 45.9988C15.2036 45.3845 15.043 44.6953 15.043 43.937H15.0457Z" fill="#08152E"/>
<path d="M31.4209 47.723V37.4583H33.3598L38.29 44.7535V37.4583H40.1679V47.723H38.2762L33.3016 40.3365V47.723H31.4237H31.4209Z" fill="#08152E"/>
<path d="M48.3164 47.723V37.4583H52.1166C53.1746 37.4583 54.1081 37.6409 54.9168 38.0035C55.7256 38.3688 56.3627 38.9306 56.8252 39.6972C57.2878 40.461 57.5204 41.4435 57.5204 42.6446C57.5204 43.7737 57.285 44.7147 56.8197 45.4675C56.3516 46.2202 55.7118 46.7848 54.8974 47.1612C54.0831 47.5348 53.1525 47.723 52.1055 47.723H48.3219H48.3164ZM50.2386 45.9988H51.9338C53.0832 45.9988 53.9668 45.7138 54.5817 45.1437C55.1966 44.5736 55.504 43.7516 55.504 42.675C55.504 41.5985 55.2215 40.7461 54.6565 40.1206C54.0914 39.4952 53.1829 39.1824 51.9338 39.1824H50.2386V45.9988Z" fill="#08152E"/>
<path d="M64.0352 47.723L67.8963 37.4583H69.8794L73.7405 47.723H71.605L70.7187 45.1215H66.9351L66.0488 47.723H64.0352ZM67.4697 43.5219H70.1703L68.8269 39.5367L67.4697 43.5219Z" fill="#08152E"/>
<path d="M88.2708 44.676L89.6142 45.8467C89.412 46.1539 89.1045 46.4721 88.6974 46.8015C88.2902 47.1308 87.8055 47.4076 87.2488 47.6317C86.6893 47.8587 86.0827 47.9694 85.4318 47.9694C84.4236 47.9694 83.5317 47.7397 82.7534 47.2775C81.9751 46.8153 81.3657 46.1816 80.9226 45.3762C80.4794 44.5709 80.2578 43.6603 80.2578 42.6447C80.2578 41.8947 80.3852 41.1917 80.64 40.5358C80.8949 39.8799 81.2522 39.3015 81.7147 38.8033C82.1773 38.3052 82.7285 37.9149 83.3711 37.6327C84.0109 37.3504 84.72 37.2092 85.4927 37.2092C86.5009 37.2092 87.3374 37.4085 88.0022 37.8098C88.6697 38.2111 89.2043 38.6982 89.6114 39.271L88.2542 40.486C87.9274 40.0155 87.5507 39.6336 87.1158 39.3485C86.6837 39.0607 86.1409 38.9168 85.49 38.9168C84.8391 38.9168 84.2546 39.0856 83.7727 39.4233C83.288 39.7609 82.9196 40.212 82.6592 40.7683C82.3989 41.3273 82.2715 41.9362 82.2715 42.5921C82.2715 43.248 82.4016 43.843 82.6592 44.3771C82.9196 44.9113 83.2824 45.3375 83.7505 45.6557C84.2186 45.974 84.767 46.1317 85.3986 46.1317C85.9885 46.1317 86.4649 46.0459 86.825 45.8688C87.1851 45.6945 87.4759 45.4924 87.6947 45.26C87.9135 45.0303 88.1046 44.831 88.2681 44.6677L88.2708 44.676Z" fill="#08152E"/>
<path d="M97.0454 47.723V37.4583H98.9677V47.723H97.0454Z" fill="#08152E"/>
<path d="M112.019 47.9999C111.277 47.9999 110.584 47.8587 109.944 47.5765C109.305 47.2942 108.742 46.9039 108.258 46.4058C107.773 45.9076 107.399 45.3348 107.128 44.6816C106.859 44.0312 106.723 43.3311 106.723 42.5811C106.723 41.8311 106.859 41.1309 107.128 40.4805C107.396 39.8301 107.773 39.2545 108.258 38.7563C108.74 38.2582 109.302 37.8707 109.944 37.594C110.584 37.3172 111.277 37.1788 112.019 37.1788C112.761 37.1788 113.454 37.3172 114.094 37.594C114.733 37.8707 115.296 38.2582 115.78 38.7563C116.265 39.2545 116.639 39.8274 116.91 40.4805C117.179 41.1309 117.315 41.8311 117.315 42.5811C117.315 43.3311 117.179 44.0312 116.91 44.6816C116.642 45.332 116.265 45.9076 115.78 46.4058C115.296 46.9039 114.736 47.2942 114.094 47.5765C113.454 47.8587 112.761 47.9999 112.019 47.9999ZM112.019 46.1678C112.689 46.1678 113.271 45.999 113.758 45.6613C114.246 45.3237 114.625 44.8781 114.894 44.3301C115.163 43.7822 115.298 43.1844 115.298 42.5368C115.298 41.8892 115.165 41.2803 114.902 40.7351C114.636 40.1927 114.26 39.7554 113.764 39.4261C113.271 39.0967 112.689 38.9335 112.016 38.9335C111.343 38.9335 110.762 39.0967 110.268 39.4261C109.775 39.7554 109.396 40.1899 109.13 40.7351C108.864 41.2803 108.734 41.8781 108.734 42.5368C108.734 43.1955 108.867 43.7822 109.13 44.3301C109.393 44.8781 109.773 45.3237 110.268 45.6613C110.762 45.999 111.343 46.1678 112.016 46.1678H112.019ZM111.041 36.689L112.155 34.2896H113.725L112.642 36.689H111.038H111.041Z" fill="#08152E"/>
<path d="M125.067 47.723V37.4583H127.006L131.936 44.7535V37.4583H133.814V47.723H131.923L126.948 40.3365V47.723H125.07H125.067Z" fill="#08152E"/>
</g>
<defs>
<clipPath id="clip0_1057_197">
<rect width="134.737" height="48" fill="white"/>
</clipPath>
</defs>
</svg>
