<svg width="60" height="47" viewBox="0 0 60 47" fill="none" xmlns="http://www.w3.org/2000/svg">
<path d="M18.6432 0C23.0614 0 26.6432 3.58172 26.6432 8V14.2613C26.6432 18.3109 25.8474 22.4484 24.2558 26.674C22.7084 30.8556 20.6305 34.8171 18.0221 38.5585C16.6036 40.5692 15.1131 42.4172 13.5507 44.1026C11.2486 46.5858 7.51698 46.8535 4.59775 45.1375L4.14118 44.8691C0.238096 42.5747 -0.951043 37.5076 0.976777 33.411C1.62886 32.0254 2.24853 30.594 2.83579 29.1169C4.56 24.8913 5.42211 19.9835 5.42211 14.3934V8C5.42211 3.58172 9.00383 0 13.4221 0H18.6432ZM52 0C56.4183 0 60 3.58172 60 8V14.2613C60 18.3109 59.2042 22.4484 57.6126 26.674C56.0653 30.8556 53.9874 34.8171 51.3789 38.5585C49.9449 40.5912 48.4306 42.4577 46.8362 44.1579C44.5338 46.6129 40.8258 46.8643 37.9242 45.1586L37.4963 44.9071C33.5688 42.5983 32.3951 37.4865 34.3454 33.3691C34.9955 31.9965 35.6113 30.5791 36.1926 29.1169C37.9168 24.8913 38.7789 19.9835 38.7789 14.3934V8C38.7789 3.58172 42.3607 0 46.7789 0H52Z" fill="#3777BC"/>
</svg>
