<svg width="520" height="229" viewBox="0 0 520 229" fill="none" xmlns="http://www.w3.org/2000/svg">
<path d="M114.722 -170.021C50.8046 -123.635 6.85935 -44.7144 1.25011 34.1303C-4.82029 119.868 43.1021 187.28 123.872 215.255C134.954 219.086 146.333 222.04 157.84 224.166C214.797 234.473 273.878 224.558 328.344 205.122C386.219 184.405 449.828 155.223 497.566 116.333C543.118 79.1654 579.041 24.1059 573.97 -36.7562C572.964 -48.7726 570.599 -60.6436 567.125 -72.1359C548.885 -132.638 498.364 -180.422 441.003 -204.258C341.659 -245.431 202.329 -233.609 114.738 -169.965L114.722 -170.021ZM283.805 -68.5984C312.589 -68.0097 371.622 -56.4087 384.985 -24.4186C405.492 24.2258 339.03 45.1483 309.672 61.9015C276.19 81.0537 224.429 104.832 188.605 76.8992C176.77 67.6794 168.269 53.302 165.323 37.6992C155.151 -17.3771 199.25 -51.753 245.062 -63.7769C258.342 -67.1538 271.64 -68.7692 283.821 -68.5421L283.805 -68.5984Z" fill="#524FA1"/>
</svg>
