<svg width="516" height="273" viewBox="0 0 516 273" fill="none" xmlns="http://www.w3.org/2000/svg">
<path d="M500.058 -51.2161C474.585 -108.132 440.617 -162.723 399.576 -209.725C357.898 -257.498 300.527 -302.467 236.964 -315.301C168.319 -329.177 88.4476 -315.679 31.7872 -273.723C23.6361 -267.675 15.6899 -260.781 11.3207 -251.651C6.95154 -242.521 6.83898 -230.657 13.5023 -223.038C19.0264 -216.744 28.0117 -214.481 36.3853 -214.947C44.7589 -215.413 52.7519 -218.292 60.8177 -220.739C87.6313 -228.852 116.446 -232.535 143.801 -226.328C179.012 -218.342 224.541 -188.241 195.729 -149.53C160.691 -102.005 91.8035 -87.7271 52.5673 -42.9551C21.0664 -6.95877 2.00764 39.8797 0.613073 87.638C-2.31654 188.009 99.51 340.954 203.293 238.188C225.325 216.33 242.617 189.618 267.376 170.594C290.986 152.457 321.864 142.2 351.772 143.367C383.407 144.437 413.677 155.692 445.672 149.953C481.97 143.424 512.54 114.289 523.314 79.3915C537.034 34.779 518.177 -10.7978 500.017 -51.1382L500.058 -51.2161ZM263.802 59.2383C243.582 77.3975 223.243 95.5944 203.507 114.249C202.158 115.525 200.79 116.742 199.578 118.039C184.164 132.712 169.343 153.111 145.551 151.744C108.07 149.683 95.3159 100.401 98.565 70.0526C103.535 23.1015 138.027 -29.1882 187.413 -37.1046C235.189 -44.7665 317.446 11.0977 263.802 59.2383Z" fill="#50B848"/>
</svg>
