<svg width="513" height="247" viewBox="0 0 513 247" fill="none" xmlns="http://www.w3.org/2000/svg">
<path d="M213.738 -241.929C217.228 -222.503 212.052 -199.813 207.443 -182.875C195.993 -140.737 184.505 -98.6171 173.037 -56.4397C170.322 -46.4447 167.595 -36.1209 169.08 -25.9092C175.112 15.4577 218.334 -15.2028 233.381 -32.2732C245.637 -46.1701 255.93 -62.2853 271.161 -72.8651C286.392 -83.4449 308.977 -86.8222 322.562 -74.1901C331.428 -65.9385 334.247 -53.1853 336.582 -41.3299C342.557 -11.076 338.722 36.0942 380.121 41.368C417.991 46.217 451.662 5.21304 471.99 -21.2129C494.16 -50.0183 512.099 -82.1131 536.535 -109.035C546.535 -120.08 557.905 -130.381 571.698 -136.097C585.491 -141.813 602.049 -142.352 614.754 -134.532C640.164 -118.797 629.095 -87.2792 617.881 -66.582C569.992 21.6082 513.201 105.974 448.683 182.914C419.211 218.065 362.566 265.799 314.326 237.365C291.696 224.043 281.232 197.116 274.591 171.709C268.541 148.492 264.461 118.274 247.498 99.8401C230.258 81.1804 207.346 91.5234 189.733 104.514C155.838 129.499 119.409 174.313 73.4531 170.996C48.1608 169.175 24.1984 154.22 11.4495 132.33C-19.2534 79.7349 22.2396 6.39494 42.7378 -42.6499C68.9076 -105.215 95.0981 -167.722 121.268 -230.287C128.186 -246.85 136.123 -264.556 151.68 -273.5C165.005 -281.158 182.654 -280.464 195.375 -271.872C206.194 -264.514 211.594 -253.886 213.738 -241.929Z" fill="#3777BC"/>
</svg>
