<svg width="542" height="300" viewBox="0 0 542 300" fill="none" xmlns="http://www.w3.org/2000/svg">
<path d="M51.6461 141.017C100.952 228.653 195.389 278.486 292.258 236.253C333.883 218.103 368.821 188.546 401.57 157.728C429.302 131.566 467.498 102.248 505.453 130.043C525.659 144.885 536.424 169.279 543.355 193.409C550.285 217.54 554.201 242.636 564.898 265.307C573.934 284.37 592.227 303.112 612.902 298.98C631.17 295.332 641.319 275.93 647.367 258.302C671.079 188.981 671.143 114.675 668.052 42.2819C664.837 -33.4131 664.01 -108.943 655.63 -184.433C649.283 -241.153 642.217 -298.751 624.68 -353.265C598.829 -433.884 519.955 -474.617 488.765 -374.305C462.314 -289.137 363.646 27.8386 225.189 -35.9044C178.389 -57.4354 156.401 -120.658 147.653 -167.103C136.723 -225.322 136.43 -287.216 108.634 -339.598C102.087 -351.952 93.6984 -363.94 81.7997 -371.322C69.901 -378.705 53.841 -380.637 41.9928 -373.264C30.562 -366.069 25.4209 -352.331 21.5796 -339.418C-6.1317 -245.869 -0.77689 -144.789 4.83697 -48.4826C8.38837 12.7856 18.2695 74.9061 45.6984 129.838C47.5856 133.572 49.5444 137.3 51.6461 141.017Z" fill="#FAA61A"/>
</svg>
