<svg width="34" height="33" viewBox="0 0 34 33" fill="none" xmlns="http://www.w3.org/2000/svg">
<path d="M28.2272 28.0795C27.4932 27.05 27.1719 25.5943 26.9753 24.4873C26.485 21.7336 25.9975 18.9799 25.5073 16.2234C25.3909 15.5703 25.2663 14.8978 24.9007 14.3471C23.4188 12.1164 21.7542 15.0749 21.3498 16.4753C21.0202 17.6155 20.8651 18.8305 20.2723 19.86C19.6796 20.8895 18.4637 21.7031 17.3308 21.3434C16.5913 21.1081 16.0789 20.4467 15.6191 19.824C14.4447 18.2354 13.3755 15.3987 10.8329 16.2262C8.50624 16.9817 7.67807 20.2779 7.22383 22.3646C6.72803 24.6395 6.56738 26.9891 5.88878 29.217C5.6118 30.1303 5.23511 31.038 4.59252 31.7465C3.94992 32.455 3.00542 32.9393 2.05538 32.8341C0.152531 32.6183 -0.0690527 30.49 0.0140413 28.9845C0.374115 22.5666 1.35462 16.1266 2.98603 9.90518C3.73111 7.06293 5.70598 2.74835 9.27902 3.07492C10.9547 3.22713 12.2981 4.5002 13.3783 5.78986C14.3644 6.96883 15.428 8.60721 16.9153 9.21053C18.4249 9.81938 19.4691 8.59337 20.1339 7.35905C21.4135 4.98451 22.2971 1.39226 25.0502 0.326764C26.5653 -0.259952 28.3629 -0.0496199 29.7007 0.869199C32.9192 3.07492 32.5232 8.45776 32.6783 11.8591C32.8749 16.1985 33.0688 20.5352 33.2655 24.8747C33.3181 26.0233 33.343 27.2659 32.6866 28.2096C32.1243 29.0177 31.0829 29.4605 30.1107 29.3111C29.2825 29.181 28.6787 28.7133 28.2272 28.0795Z" fill="#3777BC"/>
</svg>
