<svg id="Layer_1" data-name="Layer 1" xmlns="http://www.w3.org/2000/svg" viewBox="0 0 1440 703.13"><defs><style>.cls-1{fill:#3777bc;}</style></defs><path class="cls-1" d="M1440,252.27v296c-12.24,49.16-19,111.23-63.14,139.51-26.92,17.23-62.39,20.19-91.77,7.7-70.66-30-84-135.26-100.33-200.22q-31.11-124.33-62.15-248.62c-5.5-21.93-10.84-45.79-1.87-66.54,7.68-17.78,26-30.38,45.36-31.3,16.47-.73,29.94,5.93,41.12,16.38,18.17,17,30,43.79,38.16,64.36q30.31,76.75,60.58,153.58c4.79,12.13,9.82,24.61,19,33.8,37.28,37.21,57.81-26.32,60.14-54.9,1.9-23.26.14-47.29,7.55-69.45C1399.69,271.55,1418.28,252.09,1440,252.27Z"/><path class="cls-1" d="M397.81,0c-7,38.42-24.92,72.8-62.89,85.57C301.81,96.73,265.6,83.8,234.26,68.36,205.64,54.22,171.69,32,138.37,33,104.58,34.11,95,66.16,92.74,95.19,88.33,151,101.67,226.71,58.29,270A105.66,105.66,0,0,1,0,299.19V0Z"/></svg>