<svg id="Layer_3" data-name="Layer 3" xmlns="http://www.w3.org/2000/svg" viewBox="0 0 1440.88 795.91"><defs><style>.cls-1{fill:none;}.cls-2{fill:#ed0677;}</style></defs><rect class="cls-1" width="1440" height="795.91"/><path class="cls-2" d="M100.2,150.69C76,117.81,38.45,102,0,91.53V655c22.46-21.32,34.28-54,27.63-100.63C22.57,519.14,9.79,484.93,9.2,449.09c-.56-34.18,11.11-69.67,32.63-96.45,22.61-28.45,53.67-48.67,70.26-82.1C130.9,232.6,125,184.48,100.2,150.69Z"/><path class="cls-2" d="M1390.55,390.87c-2.34,27.78,1.38,56.11-4.47,83.54-5.59,26.16-20.73,51.16-41.85,67.8-22.25,17.7-49.49,27.66-68,50.23-21,25.62-25,63.34-12,93.47,16.58,38.48,56,58.63,91.87,75.61l0,.07A594.6,594.6,0,0,0,1440,794V313.81C1413.58,324.22,1394.19,348.15,1390.55,390.87Z"/></svg>