<svg id="Layer_2" data-name="Layer 2" xmlns="http://www.w3.org/2000/svg" viewBox="0 0 1440.88 795.91"><defs><style>.cls-1{fill:#fff;}.cls-2{fill:#50b848;}.cls-3{fill:none;}</style></defs><path class="cls-1" d="M1440.6,129.65v78.59c-11.3-8.71-20.89-19-22.64-34.17C1415.74,155.21,1425.89,140.29,1440.6,129.65Z"/><path class="cls-2" d="M1.72,795.91H.6V281.19C20.42,299.48,33.68,325,35,352c1.61,33.8-14.12,63.55-19.51,96.06-5.25,30.72,1.19,64,16.76,90.79C48.55,567,73.84,588.42,93.47,614.1,161.05,702.68,86.89,771.77,1.72,795.91Z"/><path class="cls-2" d="M1418,174.07c1.75,15.21,11.34,25.46,22.64,34.17V326.91a136.81,136.81,0,0,0-20.22-23.32c-24.18-22.17-55-35.21-81.62-54C1220.47,165.74,1339,42.25,1440.6,16V129.65C1425.89,140.29,1415.74,155.21,1418,174.07Z"/><rect class="cls-3" width="1440" height="795.91"/></svg>