<svg width="25" height="26" viewBox="0 0 25 26" fill="none" xmlns="http://www.w3.org/2000/svg">
<path d="M24.2322 16.6152C23.922 13.8449 23.2185 11.058 22.1106 8.49808C20.986 5.8966 19.1552 3.20103 16.6236 1.78959C13.8898 0.264686 10.3057 -0.247306 7.32261 0.768376C6.89329 0.915055 6.46121 1.10048 6.15099 1.42982C5.84077 1.75915 5.67458 2.26284 5.85462 2.67797C6.00419 3.02114 6.35595 3.23978 6.7188 3.33387C7.08164 3.42797 7.4611 3.41413 7.8378 3.41967C9.08975 3.43904 10.3666 3.67428 11.4468 4.31081C12.8373 5.13 14.3662 7.03129 12.6129 8.28775C10.4746 9.8348 7.34754 9.50546 5.068 10.8782C3.23716 11.9824 1.78855 13.7176 1.07948 15.7324C-0.41067 19.9667 1.84395 27.8652 7.66053 24.9012C8.89586 24.2702 9.99547 23.368 11.3084 22.8948C12.5603 22.4437 14.0144 22.427 15.2719 22.8837C16.6042 23.3597 17.7398 24.2508 19.1801 24.4418C20.8143 24.6577 22.5122 23.833 23.4456 22.4935C24.6366 20.7804 24.4538 18.583 24.2295 16.618L24.2322 16.6152ZM12.6711 18.1042C11.5632 18.6023 10.4497 19.1005 9.35564 19.6263C9.28086 19.6623 9.20608 19.6955 9.13683 19.7342C8.28097 20.1494 7.37247 20.8163 6.37811 20.4344C4.8104 19.8366 4.93781 17.5645 5.489 16.3163C6.33933 14.3846 8.51917 12.6272 10.7295 12.9621C12.8678 13.2859 15.6098 16.7841 12.6711 18.1042Z" fill="#ED0677"/>
</svg>
