<svg width="25" height="26" viewBox="0 0 25 26" fill="none" xmlns="http://www.w3.org/2000/svg">
<path d="M23.8943 16.6155C23.5841 13.8452 22.8806 11.0583 21.7727 8.49832C20.6481 5.89685 18.8173 3.20128 16.2857 1.78984C13.5519 0.26493 9.96779 -0.247062 6.98472 0.76862C6.5554 0.915299 6.12331 1.10072 5.8131 1.43006C5.50288 1.7594 5.33669 2.26309 5.51673 2.67821C5.66629 3.02139 6.01806 3.24002 6.3809 3.33412C6.74374 3.42821 7.12321 3.41438 7.4999 3.41991C8.75185 3.43928 10.0287 3.67452 11.1089 4.31106C12.4994 5.13024 14.0283 7.03154 12.275 8.28799C10.1367 9.83504 7.00965 9.5057 4.7301 10.8784C2.89927 11.9826 1.45066 13.7179 0.741591 15.7326C-0.74856 19.967 1.50606 27.8655 7.32264 24.9015C8.55797 24.2705 9.65757 23.3682 10.9705 22.895C12.2224 22.4439 13.6766 22.4273 14.934 22.8839C16.2663 23.3599 17.4019 24.2511 18.8422 24.442C20.4764 24.6579 22.1743 23.8332 23.1077 22.4937C24.2987 20.7806 24.1159 18.5832 23.8916 16.6182L23.8943 16.6155ZM12.3332 18.1044C11.2253 18.6026 10.1118 19.1007 9.01775 19.6266C8.94297 19.6625 8.86818 19.6957 8.79894 19.7345C7.94307 20.1496 7.03457 20.8166 6.04022 20.4347C4.47251 19.8369 4.59992 17.5647 5.15111 16.3166C6.00144 14.3849 8.18127 12.6275 10.3916 12.9623C12.5299 13.2861 15.272 16.7843 12.3332 18.1044Z" fill="#50B848"/>
</svg>
