<svg width="21" height="29" viewBox="0 0 21 29" fill="none" xmlns="http://www.w3.org/2000/svg">
<path d="M19.9474 9.2786C18.6705 5.76937 15.6542 2.74446 12.1421 1.4631C8.32253 0.071032 4.63316 1.37177 2.3093 4.67897C1.99077 5.13284 1.70825 5.61162 1.46173 6.10701C0.251332 8.56181 -0.0671908 11.3764 0.107307 14.1052C0.295653 17.0055 0.794215 20.2768 1.94091 22.953C3.03775 25.5074 5.07356 27.857 7.90706 28.4188C8.46656 28.5295 9.03714 28.5766 9.60495 28.5683C12.5936 28.5268 15.4243 26.8524 17.2551 24.5554C20.421 20.5756 21.6979 14.0886 19.9446 9.2786H19.9474ZM13.1337 15.6439C12.732 16.9447 11.4358 19.4769 9.80714 19.6679C7.32817 19.9668 7.2423 16.6734 6.86284 15.1208C6.42798 13.3496 6.02082 10.6873 7.75749 9.42251C8.33084 9.00461 9.0953 8.80535 9.84314 8.87454C12.48 9.12915 13.4688 11.5812 13.419 13.8201C13.3996 14.4677 13.2999 15.0932 13.1309 15.6439H13.1337Z" fill="#524FA1"/>
</svg>
